<svg width="60" height="60" viewBox="0 0 60 60" fill="none" xmlns="http://www.w3.org/2000/svg">
<path d="M52.6758 43.1717L31.5823 0.896572C30.9848 -0.298857 29.0158 -0.298857 28.4181 0.896572L7.3244 43.1717C7.00811 43.8045 7.11346 44.5428 7.57049 45.1053C8.02752 45.6328 8.80084 45.8437 9.46881 45.5975L28.2425 39.375L30.0003 35.1562L31.7581 39.375L50.5319 45.5975C51.1187 45.8328 51.9113 45.6763 52.4301 45.1053C52.887 44.5429 52.9926 43.8045 52.6758 43.1717Z" fill="url(#paint0_linear_2974_3290)"/>
<path d="M30 42.1875C29.0284 42.1875 28.2422 42.9737 28.2422 43.9453V58.2422C28.2422 59.2138 29.0284 60 30 60C30.9716 60 31.7578 59.2138 31.7578 58.2422V43.9453C31.7578 42.9737 30.9716 42.1875 30 42.1875ZM30 21.0938C29.0155 21.0938 28.2422 21.8671 28.2422 22.8516V39.375L30 38.7772L31.7578 39.375V22.8516C31.7578 21.8671 30.9845 21.0938 30 21.0938ZM22.9688 45.7031C21.9971 45.7031 21.2109 46.4893 21.2109 47.4609V54.7266C21.2109 55.6982 21.9971 56.4844 22.9688 56.4844C23.9404 56.4844 24.7266 55.6982 24.7266 54.7266V47.4609C24.7266 46.4893 23.9404 45.7031 22.9688 45.7031ZM37.0312 45.7031C36.0596 45.7031 35.2734 46.4893 35.2734 47.4609V54.7266C35.2734 55.6982 36.0596 56.4844 37.0312 56.4844C38.0029 56.4844 38.7891 55.6982 38.7891 54.7266V47.4609C38.7891 46.4893 38.0029 45.7031 37.0312 45.7031Z" fill="url(#paint1_linear_2974_3290)"/>
<defs>
<linearGradient id="paint0_linear_2974_3290" x1="30.0003" y1="45.7029" x2="30.0003" y2="-2.99651e-05" gradientUnits="userSpaceOnUse">
<stop stop-color="#00B59C"/>
<stop offset="1" stop-color="#9CFFAC"/>
</linearGradient>
<linearGradient id="paint1_linear_2974_3290" x1="30" y1="60" x2="30" y2="21.0938" gradientUnits="userSpaceOnUse">
<stop stop-color="#C3FFE8"/>
<stop offset="0.997" stop-color="#F0FFF4"/>
</linearGradient>
</defs>
</svg>
